<svg width="24" height="20" viewBox="0 0 24 20" fill="none" xmlns="http://www.w3.org/2000/svg">
<path d="M1.16683 1.70933L2.5535 0.333496L20.6668 18.4468L19.291 19.8335L15.9543 16.4968C14.7085 16.9085 13.3868 17.1252 12.0002 17.1252C6.5835 17.1252 1.95766 13.756 0.0834961 9.00016C0.830996 7.0935 2.02266 5.41433 3.53933 4.08183L1.16683 1.70933ZM12.0002 5.75016C12.8621 5.75016 13.6888 6.09257 14.2983 6.70207C14.9078 7.31156 15.2502 8.13821 15.2502 9.00016C15.2507 9.36911 15.1884 9.73546 15.066 10.0835L10.9168 5.93433C11.2649 5.81189 11.6312 5.74962 12.0002 5.75016ZM12.0002 0.875163C17.4168 0.875163 22.0427 4.24433 23.9168 9.00016C23.0327 11.2461 21.5302 13.1956 19.5835 14.6227L18.0452 13.0735C19.5433 12.0372 20.7516 10.635 21.5552 9.00016C20.6794 7.2126 19.3196 5.70658 17.6305 4.65329C15.9414 3.60001 13.9907 3.0417 12.0002 3.04183C10.8193 3.04183 9.66016 3.23683 8.57683 3.5835L6.9085 1.926C8.4685 1.25433 10.191 0.875163 12.0002 0.875163ZM2.44516 9.00016C3.32097 10.7877 4.6807 12.2937 6.36979 13.347C8.05888 14.4003 10.0096 14.9586 12.0002 14.9585C12.7477 14.9585 13.4843 14.8827 14.1668 14.731L11.6968 12.2502C10.943 12.1694 10.2396 11.8329 9.70347 11.2969C9.16738 10.7608 8.83096 10.0573 8.75016 9.3035L5.06683 5.60933C3.99433 6.53016 3.09516 7.6785 2.44516 9.00016Z" fill="currentColor"/>
</svg>
