<svg width="20" height="20" viewBox="0 0 20 20" fill="none" xmlns="http://www.w3.org/2000/svg">
<g clip-path="url(#clip0_12629_27351)">
<path d="M17.0002 10.1555C17.0002 9.58162 16.9526 9.16282 16.8494 8.72852H10.1431V11.3188H14.0795C14.0002 11.9626 13.5716 12.932 12.6192 13.5835L12.6059 13.6702L14.7263 15.2754L14.8732 15.2897C16.2224 14.0721 17.0002 12.2805 17.0002 10.1555Z" fill="#4285F4"/>
<path d="M10.1427 16.9804C12.0712 16.9804 13.6903 16.3599 14.8728 15.2897L12.6189 13.5834C12.0157 13.9944 11.2062 14.2814 10.1427 14.2814C8.25381 14.2814 6.65065 13.0638 6.07917 11.3809L5.9954 11.3878L3.79055 13.0553L3.76172 13.1336C4.93631 15.4137 7.34901 16.9804 10.1427 16.9804Z" fill="#34A853"/>
<path d="M6.07933 11.3798C5.92854 10.9454 5.84128 10.4801 5.84128 9.99926C5.84128 9.51838 5.92854 9.05307 6.0714 8.61876L6.06741 8.52627L3.83493 6.83203L3.76189 6.86598C3.27778 7.81217 3 8.8747 3 9.99926C3 11.1238 3.27778 12.1863 3.76189 13.1325L6.07933 11.3798Z" fill="#FBBC05"/>
<path d="M10.1427 5.71845C11.4839 5.71845 12.3887 6.2846 12.9046 6.75772L14.9204 4.83433C13.6824 3.70978 12.0712 3.01953 10.1427 3.01953C7.34901 3.01953 4.93631 4.58614 3.76172 6.86626L6.07123 8.61904C6.65065 6.93608 8.25381 5.71845 10.1427 5.71845Z" fill="#EB4335"/>
</g>
<defs>
<clipPath id="clip0_12629_27351">
<rect width="14" height="14" fill="white" transform="translate(3 3)"/>
</clipPath>
</defs>
</svg>
